<!DOCTYPE svg PUBLIC "-//W3C//DTD SVG 1.1//EN" "http://www.w3.org/Graphics/SVG/1.1/DTD/svg11.dtd">
<!-- Uploaded to: SVG Repo, www.svgrepo.com, Transformed by: SVG Repo Mixer Tools -->
<svg width="49" height="49" viewBox="0 0 49 49" fill="none" xmlns="http://www.w3.org/2000/svg">
<path d="M39.5518 0.5H46.5156C47.1143 0.500197 47.622 1.00451 47.6221 1.66504V46.4736C47.6219 47.1336 47.1146 47.6375 46.5156 47.6377H39.5518C38.8458 47.6377 38.3556 47.1158 38.3555 46.4736V27.0459L37.6045 27.4785L3.67969 47.0742C3.03038 47.4472 2.2372 47.4472 1.58789 47.0742C0.925749 46.6937 0.5 45.9988 0.5 45.2705V2.86719C0.5 2.13972 0.925492 1.44403 1.58789 1.06348C2.23724 0.690462 3.03024 0.691125 3.67969 1.06348V1.0625L37.6045 20.6592L38.3555 21.0928V1.66504C38.3555 1.02233 38.846 0.5 39.5518 0.5Z" fill="#b3b3b3" stroke="#b3b3b3"/>
</svg>
